<?xml version="1.0" encoding="UTF-8" standalone="no"?><!DOCTYPE svg PUBLIC "-//W3C//DTD SVG 1.1//EN" "http://www.w3.org/Graphics/SVG/1.1/DTD/svg11.dtd"><svg width="13px" height="13px" version="1.1" xmlns="http://www.w3.org/2000/svg" xmlns:xlink="http://www.w3.org/1999/xlink" xml:space="preserve" xmlns:serif="http://www.serif.com/" style="fill-rule:evenodd;clip-rule:evenodd;stroke-linejoin:round;stroke-miterlimit:2;"><g transform="matrix(1.73205,1,-0.5,0.866025,2.04487,-0.113621)"><path d="M3,1L3,8.5L2,8.5L2,2.155L3,1Z" style="fill:rgb(109,112,125);"/></g><g transform="matrix(-1.11022e-16,2,-1,-5.55112e-17,4,4.2476)"><rect x="2" y="1" width="1" height="7.5" style="fill:rgb(109,112,125);"/></g><g transform="matrix(1.52538e-17,1.50481,-1.13333,-1.17828e-16,17.6333,-0.762024)"><path d="M3,1L3,8.941L2,8.059L2,1L3,1Z" style="fill:rgb(109,112,125);"/></g><g transform="matrix(1.73205,1,-0.5,0.866025,5.04487,0.133975)"><path d="M3.019,2.133L2.998,8.217L2,9.369L1.972,3.341L3.019,2.133Z" style="fill:rgb(109,112,125);"/></g><g transform="matrix(1.73205,1,-0.5,0.866025,8.30385,0.133975)"><path d="M2.938,0.786L2.998,8.217L2,9.369L2.072,1.786L2.938,0.786Z" style="fill:rgb(109,112,125);"/></g></svg>